<svg width="80" height="80" viewBox="0 0 80 80" fill="none" xmlns="http://www.w3.org/2000/svg">
<rect width="80" height="80" rx="10" fill="#181818"/>
<path d="M38.75 5C25.6543 5 15 15.6543 15 28.75C15 34.9658 18.4766 39.6094 21.8408 44.1016C24.5264 47.6904 27.0557 51.1084 27.5 55V63.75C27.5 68.1494 30.7666 71.792 35 72.4023V73.75C35 75.127 36.123 76.25 37.5 76.25H40C41.377 76.25 42.5 75.127 42.5 73.75V72.4023C46.7334 71.792 50 68.1494 50 63.75V56.123C50.0195 51.7529 52.7783 48.0371 55.7031 44.1016C59.0479 39.6094 62.5 34.9658 62.5 28.75C62.5 15.6543 51.8457 5 38.75 5ZM38.75 7.5C50.4688 7.5 60 17.0312 60 28.75C60 34.1406 56.7969 38.4473 53.7012 42.6123C50.8984 46.3818 48.0078 50.2637 47.5586 54.9219H40V51.25C40 50.5615 39.4385 50 38.75 50C38.0615 50 37.5 50.5615 37.5 51.25V54.9268H30.0342C29.5801 50.2686 26.665 46.377 23.8428 42.6025C20.7227 38.4375 17.5 34.1357 17.5 28.75C17.5 17.0312 27.0312 7.5 38.75 7.5ZM38.5791 11.2451C35.2393 11.2744 31.9775 12.2559 29.1406 14.1211C28.5645 14.4971 28.4082 15.2734 28.7891 15.8496C29.0283 16.2158 29.4238 16.4111 29.8291 16.4111C30.0684 16.4111 30.3027 16.3477 30.5176 16.2061C33.7549 14.0771 37.6465 13.2959 41.4795 13.999C42.1631 14.1211 42.8125 13.6719 42.9346 12.9932C43.0615 12.3145 42.6123 11.665 41.9336 11.543C40.8154 11.333 39.6973 11.2354 38.5791 11.2451ZM47.3242 13.5938C46.8457 13.5254 46.3428 13.7451 46.0742 14.1846C45.7178 14.7803 45.9082 15.5469 46.5039 15.9033C47.5342 16.5283 48.4961 17.2803 49.3555 18.1445C49.5996 18.3887 49.9219 18.5107 50.2393 18.5107C50.5615 18.5107 50.8838 18.3887 51.1279 18.1445C51.6162 17.6562 51.6162 16.8652 51.1279 16.377C50.1172 15.3711 48.999 14.4922 47.793 13.7646C47.6465 13.6768 47.4854 13.6182 47.3242 13.5938ZM6.2793 14.3896C5.79102 14.3994 5.33203 14.6924 5.13672 15.1709C4.88281 15.8105 5.19043 16.543 5.83008 16.7969L10.4688 18.6719C10.6201 18.7354 10.7764 18.7646 10.9326 18.7646C11.4258 18.7646 11.8994 18.4668 12.0947 17.9834C12.3535 17.3389 12.041 16.6113 11.4014 16.3525L6.76758 14.4775C6.60645 14.4141 6.44043 14.3848 6.2793 14.3896ZM71.2207 14.3896C71.0596 14.3848 70.8936 14.4141 70.7324 14.4775L66.0986 16.3525C65.459 16.6113 65.1465 17.3389 65.4053 17.9834C65.6006 18.4668 66.0742 18.7646 66.5674 18.7646C66.7236 18.7646 66.8799 18.7354 67.0312 18.6719L71.6699 16.7969C72.3096 16.543 72.6172 15.8105 72.3633 15.1709C72.168 14.6924 71.709 14.3994 71.2207 14.3896ZM1.25 27.5C0.561524 27.5 0 28.0615 0 28.75C0 29.4385 0.561524 30 1.25 30H8.75C9.43848 30 10 29.4385 10 28.75C10 28.0615 9.43848 27.5 8.75 27.5H1.25ZM68.75 27.5C68.0615 27.5 67.5 28.0615 67.5 28.75C67.5 29.4385 68.0615 30 68.75 30H76.25C76.9385 30 77.5 29.4385 77.5 28.75C77.5 28.0615 76.9385 27.5 76.25 27.5H68.75ZM33.75 32.5C33.4326 32.5 33.1104 32.6221 32.8662 32.8662C32.3779 33.3545 32.3779 34.1455 32.8662 34.6338L35.3662 37.1338C35.6104 37.3779 35.9277 37.5 36.25 37.5C36.5723 37.5 36.8896 37.3779 37.1338 37.1338C37.6221 36.6455 37.6221 35.8545 37.1338 35.3662L34.6338 32.8662C34.3896 32.6221 34.0674 32.5 33.75 32.5ZM43.75 32.5C43.4326 32.5 43.1104 32.6221 42.8662 32.8662L37.8662 37.8662C37.6318 38.1006 37.5 38.418 37.5 38.75V46.25C37.5 46.9385 38.0615 47.5 38.75 47.5C39.4385 47.5 40 46.9385 40 46.25V39.2676L44.6338 34.6338C45.1221 34.1455 45.1221 33.3545 44.6338 32.8662C44.3896 32.6221 44.0674 32.5 43.75 32.5ZM10.957 38.7354C10.791 38.7354 10.625 38.7646 10.4688 38.8281L5.83008 40.7031C5.19043 40.957 4.88281 41.6895 5.13672 42.3291C5.33691 42.8174 5.80566 43.1104 6.29883 43.1104C6.45508 43.1104 6.61621 43.0811 6.76758 43.0225L11.4014 41.1475C12.041 40.8887 12.3535 40.1611 12.0947 39.5166C11.8994 39.0381 11.4404 38.7451 10.957 38.7354ZM66.543 38.7402C66.0596 38.75 65.6006 39.043 65.4053 39.5215C65.1465 40.1611 65.459 40.8936 66.0986 41.1523L70.7324 43.0225C70.8838 43.0859 71.0449 43.1104 71.2012 43.1104C71.6943 43.1104 72.1631 42.8174 72.3633 42.3291C72.6172 41.6895 72.3096 40.9619 71.6699 40.7031L67.0312 38.8281C66.875 38.7646 66.709 38.7354 66.543 38.7402ZM30 57.5H47.5V58.8965L30 61.084V57.5ZM47.5 61.416V63.75C47.5 63.7988 47.4854 63.8477 47.4854 63.9014L34.79 65.4883C34.1064 65.5713 33.623 66.1963 33.7109 66.8799C33.7891 67.5146 34.3262 67.9736 34.9463 67.9736C35 67.9736 35.0488 67.9736 35.1025 67.9639L46.8359 66.499C45.8154 68.5645 43.7061 70 41.25 70H36.25C32.8027 70 30 67.1973 30 63.75V63.6035L47.5 61.416ZM37.5 72.5H40V73.75H37.5V72.5Z" fill="url(#paint0_linear_17_23)"/>
<defs>
<linearGradient id="paint0_linear_17_23" x1="0" y1="40.625" x2="77.5" y2="40.625" gradientUnits="userSpaceOnUse">
<stop offset="0.05" stop-color="#986355"/>
<stop offset="0.255" stop-color="#B58B7D"/>
<stop offset="0.495" stop-color="#FAC3B1"/>
<stop offset="0.755" stop-color="#C99383"/>
<stop offset="0.975" stop-color="#986355"/>
</linearGradient>
</defs>
</svg>
