<svg width="178" height="102" viewBox="0 0 178 102" fill="none" xmlns="http://www.w3.org/2000/svg">
<path d="M80.75 5C67.6543 5 57 15.6543 57 28.75C57 34.9658 60.4766 39.6094 63.8408 44.1016C66.5264 47.6904 69.0557 51.1084 69.5 55V63.75C69.5 68.1494 72.7666 71.792 77 72.4023V73.75C77 75.127 78.123 76.25 79.5 76.25H82C83.377 76.25 84.5 75.127 84.5 73.75V72.4023C88.7334 71.792 92 68.1494 92 63.75V56.123C92.0195 51.7529 94.7783 48.0371 97.7031 44.1016C101.048 39.6094 104.5 34.9658 104.5 28.75C104.5 15.6543 93.8457 5 80.75 5ZM80.75 7.5C92.4688 7.5 102 17.0312 102 28.75C102 34.1406 98.7969 38.4473 95.7012 42.6123C92.8984 46.3818 90.0078 50.2637 89.5586 54.9219H82V51.25C82 50.5615 81.4385 50 80.75 50C80.0615 50 79.5 50.5615 79.5 51.25V54.9268H72.0342C71.5801 50.2686 68.665 46.377 65.8428 42.6025C62.7227 38.4375 59.5 34.1357 59.5 28.75C59.5 17.0312 69.0312 7.5 80.75 7.5ZM80.5791 11.2451C77.2393 11.2744 73.9775 12.2559 71.1406 14.1211C70.5645 14.4971 70.4082 15.2734 70.7891 15.8496C71.0283 16.2158 71.4238 16.4111 71.8291 16.4111C72.0684 16.4111 72.3027 16.3477 72.5176 16.2061C75.7549 14.0771 79.6465 13.2959 83.4795 13.999C84.1631 14.1211 84.8125 13.6719 84.9346 12.9932C85.0615 12.3145 84.6123 11.665 83.9336 11.543C82.8154 11.333 81.6973 11.2354 80.5791 11.2451ZM89.3242 13.5938C88.8457 13.5254 88.3428 13.7451 88.0742 14.1846C87.7178 14.7803 87.9082 15.5469 88.5039 15.9033C89.5342 16.5283 90.4961 17.2803 91.3555 18.1445C91.5996 18.3887 91.9219 18.5107 92.2393 18.5107C92.5615 18.5107 92.8838 18.3887 93.1279 18.1445C93.6162 17.6562 93.6162 16.8652 93.1279 16.377C92.1172 15.3711 90.999 14.4922 89.793 13.7646C89.6465 13.6768 89.4854 13.6182 89.3242 13.5938ZM48.2793 14.3896C47.791 14.3994 47.332 14.6924 47.1367 15.1709C46.8828 15.8105 47.1904 16.543 47.8301 16.7969L52.4688 18.6719C52.6201 18.7354 52.7764 18.7646 52.9326 18.7646C53.4258 18.7646 53.8994 18.4668 54.0947 17.9834C54.3535 17.3389 54.041 16.6113 53.4014 16.3525L48.7676 14.4775C48.6064 14.4141 48.4404 14.3848 48.2793 14.3896ZM113.221 14.3896C113.06 14.3848 112.894 14.4141 112.732 14.4775L108.099 16.3525C107.459 16.6113 107.146 17.3389 107.405 17.9834C107.601 18.4668 108.074 18.7646 108.567 18.7646C108.724 18.7646 108.88 18.7354 109.031 18.6719L113.67 16.7969C114.31 16.543 114.617 15.8105 114.363 15.1709C114.168 14.6924 113.709 14.3994 113.221 14.3896ZM43.25 27.5C42.5615 27.5 42 28.0615 42 28.75C42 29.4385 42.5615 30 43.25 30H50.75C51.4385 30 52 29.4385 52 28.75C52 28.0615 51.4385 27.5 50.75 27.5H43.25ZM110.75 27.5C110.062 27.5 109.5 28.0615 109.5 28.75C109.5 29.4385 110.062 30 110.75 30H118.25C118.938 30 119.5 29.4385 119.5 28.75C119.5 28.0615 118.938 27.5 118.25 27.5H110.75ZM75.75 32.5C75.4326 32.5 75.1104 32.6221 74.8662 32.8662C74.3779 33.3545 74.3779 34.1455 74.8662 34.6338L77.3662 37.1338C77.6104 37.3779 77.9277 37.5 78.25 37.5C78.5723 37.5 78.8896 37.3779 79.1338 37.1338C79.6221 36.6455 79.6221 35.8545 79.1338 35.3662L76.6338 32.8662C76.3896 32.6221 76.0674 32.5 75.75 32.5ZM85.75 32.5C85.4326 32.5 85.1104 32.6221 84.8662 32.8662L79.8662 37.8662C79.6318 38.1006 79.5 38.418 79.5 38.75V46.25C79.5 46.9385 80.0615 47.5 80.75 47.5C81.4385 47.5 82 46.9385 82 46.25V39.2676L86.6338 34.6338C87.1221 34.1455 87.1221 33.3545 86.6338 32.8662C86.3896 32.6221 86.0674 32.5 85.75 32.5ZM52.957 38.7354C52.791 38.7354 52.625 38.7646 52.4688 38.8281L47.8301 40.7031C47.1904 40.957 46.8828 41.6895 47.1367 42.3291C47.3369 42.8174 47.8057 43.1104 48.2988 43.1104C48.4551 43.1104 48.6162 43.0811 48.7676 43.0225L53.4014 41.1475C54.041 40.8887 54.3535 40.1611 54.0947 39.5166C53.8994 39.0381 53.4404 38.7451 52.957 38.7354ZM108.543 38.7402C108.06 38.75 107.601 39.043 107.405 39.5215C107.146 40.1611 107.459 40.8936 108.099 41.1523L112.732 43.0225C112.884 43.0859 113.045 43.1104 113.201 43.1104C113.694 43.1104 114.163 42.8174 114.363 42.3291C114.617 41.6895 114.31 40.9619 113.67 40.7031L109.031 38.8281C108.875 38.7646 108.709 38.7354 108.543 38.7402ZM72 57.5H89.5V58.8965L72 61.084V57.5ZM89.5 61.416V63.75C89.5 63.7988 89.4854 63.8477 89.4854 63.9014L76.79 65.4883C76.1064 65.5713 75.623 66.1963 75.7109 66.8799C75.7891 67.5146 76.3262 67.9736 76.9463 67.9736C77 67.9736 77.0488 67.9736 77.1025 67.9639L88.8359 66.499C87.8154 68.5645 85.7061 70 83.25 70H78.25C74.8027 70 72 67.1973 72 63.75V63.6035L89.5 61.416ZM79.5 72.5H82V73.75H79.5V72.5Z" fill="url(#paint0_linear_3_145)" style="mix-blend-mode:darken"/>
<path d="M13.98 94.64L11.72 96H7.58V93.74H11.46V84.5H13.98V94.64ZM2.8 92.36V93.74H6.6V96H2.54L0.2 94.64V92.36H2.8ZM16.9813 85.88L19.3213 84.5H23.4613V86.76H19.5013V93.66H23.3813V96H19.3213L16.9813 94.64V85.88ZM30.7613 85.88L28.5013 84.5H24.3613V86.76H28.2413V93.66H24.3613V96H28.5013L30.7613 94.64V85.88ZM33.5539 84.5V94.64L35.8339 96H39.9539V93.66H36.0739V84.5H33.5539ZM47.3339 84.5V94.64L45.0739 96H40.9339V93.66H44.8139V84.5H47.3339ZM50.5266 84.5H56.9266V86.86H53.0466V89.12H56.9266V91.46H53.0466V96H50.5266V84.5ZM64.3066 96V91.24L62.4266 90.26L64.3066 89.36V85.88L61.9466 84.5H57.8266V86.86H61.7866V89.12H57.8266V91.46H61.7866V96H64.3066ZM67.3141 84.5H69.5941L73.7141 88.38V91.4L69.8341 87.66V96H67.3141V84.5ZM78.5741 92.76V84.5H81.0941V96H78.7341L74.6141 92.04V89.12L78.5741 92.76ZM82.6859 85.88V96H85.2059V91.4H89.0859V89.12H85.2059V86.76H89.0859V84.5H84.9659L82.6859 85.88ZM96.4659 85.88V96H93.9459V91.4H89.9859V89.12H93.9459V86.76H89.9859V84.5H94.1059L96.4659 85.88ZM99.6586 84.5H102.179V93.66H105.979V96H99.6586V84.5ZM107.039 93.66V96H113.439V93.66H107.039ZM120.431 85.88V96H122.951V91.4H126.831V89.12H122.951V86.76H126.831V84.5H122.711L120.431 85.88ZM134.211 85.88V96H131.691V91.4H127.731V89.12H131.691V86.76H127.731V84.5H131.851L134.211 85.88ZM137.404 84.5H143.884V86.76H140.004V89.12H143.884V91.46H140.004V96H137.404V84.5ZM151.264 90.1V85.88L148.924 84.5H144.784V86.76H148.664V89.12H144.784V91.46H148.924L151.264 90.1ZM153.469 84.5H159.949V86.76H156.069V89.12H159.949V91.46H156.069V96H153.469V84.5ZM167.329 90.1V85.88L164.989 84.5H160.849V86.76H164.729V89.12H160.849V91.46H164.989L167.329 90.1Z" fill="url(#paint1_linear_3_145)"/>
<defs>
<linearGradient id="paint0_linear_3_145" x1="80.75" y1="5" x2="80.75" y2="76.25" gradientUnits="userSpaceOnUse">
<stop offset="0.025" stop-color="#CF9E8E"/>
<stop offset="0.21" stop-color="#B58B7D"/>
<stop offset="0.49" stop-color="#986355"/>
<stop offset="0.7075" stop-color="#C99383"/>
<stop offset="1" stop-color="#FAC3B1"/>
</linearGradient>
<linearGradient id="paint1_linear_3_145" x1="0" y1="91" x2="178" y2="91" gradientUnits="userSpaceOnUse">
<stop offset="0.05" stop-color="#986355"/>
<stop offset="0.255" stop-color="#B58B7D"/>
<stop offset="0.495" stop-color="#FAC3B1"/>
<stop offset="0.755" stop-color="#C99383"/>
<stop offset="0.975" stop-color="#986355"/>
</linearGradient>
</defs>
</svg>
